<?xml version="1.0" encoding="UTF-8"?>
<svg id="_圖層_2" data-name="圖層 2" xmlns="http://www.w3.org/2000/svg" xmlns:xlink="http://www.w3.org/1999/xlink" viewBox="0 0 168.3 196.66">
  <defs>
    <style>
      .cls-1, .cls-2 {
        stroke-width: 1.02px;
      }

      .cls-1, .cls-2, .cls-3, .cls-4, .cls-5, .cls-6 {
        stroke-miterlimit: 10;
      }

      .cls-1, .cls-2, .cls-3, .cls-6 {
        stroke: #be9d73;
      }

      .cls-1, .cls-3, .cls-7, .cls-6 {
        fill: #fff;
      }

      .cls-2, .cls-8 {
        fill: none;
      }

      .cls-3 {
        stroke-width: .7px;
      }

      .cls-4 {
        fill: #3e8191;
        stroke-width: 2.8px;
      }

      .cls-4, .cls-5 {
        stroke: #3d3a39;
      }

      .cls-9 {
        fill: #be9d73;
      }

      .cls-9, .cls-8, .cls-7, .cls-10, .cls-11, .cls-12 {
        stroke-width: 0px;
      }

      .cls-5, .cls-6 {
        stroke-width: .66px;
      }

      .cls-5, .cls-12 {
        fill: #3d3a39;
      }

      .cls-13 {
        clip-path: url(#clippath-1);
      }

      .cls-10 {
        fill: url(#_未命名漸層_13);
      }

      .cls-14 {
        clip-path: url(#clippath);
      }

      .cls-11 {
        fill: url(#_未命名漸層_14);
      }
    </style>
    <clipPath id="clippath">
      <rect class="cls-8" width="168.3" height="196.66"/>
    </clipPath>
    <clipPath id="clippath-1">
      <rect class="cls-8" x="12.55" y="61.82" width="134.86" height="134.86"/>
    </clipPath>
    <linearGradient id="_未命名漸層_14" data-name="未命名漸層 14" x1="-15.5" y1="198.98" x2="90.53" y2="195.7" gradientUnits="userSpaceOnUse">
      <stop offset=".38" stop-color="#be9d73"/>
      <stop offset=".45" stop-color="#c0a179"/>
      <stop offset=".54" stop-color="#c8ad8a"/>
      <stop offset=".64" stop-color="#d6c1a7"/>
      <stop offset=".75" stop-color="#e8ddcf"/>
      <stop offset=".87" stop-color="#fff"/>
    </linearGradient>
    <linearGradient id="_未命名漸層_13" data-name="未命名漸層 13" x1="88.39" y1="154.14" x2="78.55" y2="226.29" gradientUnits="userSpaceOnUse">
      <stop offset=".23" stop-color="#be9d73"/>
      <stop offset=".31" stop-color="#c0a179"/>
      <stop offset=".43" stop-color="#c8ad8a"/>
      <stop offset=".57" stop-color="#d6c1a7"/>
      <stop offset=".72" stop-color="#e8ddcf"/>
      <stop offset=".87" stop-color="#fff"/>
    </linearGradient>
  </defs>
  <g id="_圖層_2-2" data-name="圖層 2">
    <g class="cls-14">
      <circle class="cls-4" cx="86.08" cy="42.48" r="34"/>
      <g class="cls-13">
        <g>
          <g>
            <path class="cls-5" d="M52.13,186.03c-2.95.13-5.69.26-7.28.36-4.73.3-5.03-3.84-8.87-2.66-3.84,1.18-1.1,18.1,1.56,21.36,1.18,1.44,12.18,1.83,18.55,2.23-.97-2.31-2.02-5.16-2.96-8.51-1.54-5.49-1.4-9.97-1-12.78Z"/>
            <path class="cls-11" d="M57.09,185.82c-1.61.07-3.32.14-4.96.21-.4,2.81-.54,7.29,1,12.78.94,3.35,1.99,6.2,2.96,8.51,1.56.1,3.14.17,4.67.23-3.26-10.96-3.78-17.89-3.66-21.73Z"/>
            <path class="cls-3" d="M60.75,207.55c6.28.24,11.74.19,11.74.19l-.45-22.82-7.39.59s-3.45.14-7.57.31c-.12,3.84.41,10.77,3.66,21.73Z"/>
          </g>
          <path class="cls-1" d="M113.18,128.67c-4.72-13.28-12.94-23.78-26.03-24.09-13.39-.32-24.34,10.44-24.34,23.75,0,.34,0,.68.02,1.02.3,7.07-2.84,13.4-5.69,19.66-3.11,6.85-4.95,14.94-4.5,22.6.32,5.56,1.74,12.43,4.1,16.52,0,0,57.59,0,58.15,0,2.43-.02,3.37-18.71,3.51-21.12.73-12.77-.94-26.27-5.23-38.33Z"/>
          <polygon class="cls-9" points="78.08 177.21 81.5 177.07 81.5 140.04 79.8 130.36 79.28 142.09 78.08 177.21"/>
          <path class="cls-10" d="M53.29,176.53h64.1s-1.8,13.7-8.57,23.48c-1.77,2.56-4.04,8.8-6.92,8.8h-22.81s-9.58.13-15.57-6.91c-10.31-12.11-10.24-25.37-10.24-25.37Z"/>
          <path class="cls-6" d="M64.45,150.37h7.56v3.74h-9.83v-1.47c0-1.25,1.02-2.27,2.27-2.27Z"/>
          <path class="cls-12" d="M85.87,176.69c-2.89-1.12-5.57-3.5-5.79-3.71v-.02s0,0,0,0c0,0,0,0,0,0v.02c-.22.2-2.9,2.59-5.79,3.71l1.56,1.55,4.24-3.29,4.24,3.29,1.56-1.55Z"/>
          <path class="cls-1" d="M65.55,136.34c8.48,0,15.36.3,15.36-8.19,0-7.45-5.3-13.65-12.33-15.06-3.67,4.09-5.9,9.49-5.9,15.41,0,.33,0,.66.02.99.1,2.3-.02,4.59-.35,6.84,1.03,0,2.1,0,3.2,0Z"/>
          <path class="cls-9" d="M73.87,123.12c0-1.24-1-2.24-2.24-2.24-1.24,0-2.24,1-2.24,2.24s1,2.24,2.24,2.24c1.24,0,2.24-1,2.24-2.24Z"/>
          <path class="cls-2" d="M62.72,130.55c1.31-.04,2.77-.41,4.26-1.39"/>
          <rect class="cls-9" x="80.42" y="96.1" width="13.86" height="9.4"/>
          <polygon class="cls-12" points="77.82 92.08 83.62 101.04 98.71 101.04 91.75 92.08 77.82 92.08"/>
          <path class="cls-1" d="M106.21,184.11l-25.4-41.53c-.77-1.25-.59-2.84.51-3.86,1.87-1.73,5.63-3.24,12.43,1.03,10.88,6.84,25.99,33.72,25.98,37.84,0,2.94-.12,11.09-7.01,10.51-2.76-.23-5.17-1.79-6.52-3.99Z"/>
        </g>
      </g>
      <g>
        <rect class="cls-7" x="81.96" y="18.74" width="8.23" height="47.47" rx="4.12" ry="4.12" transform="translate(-4.82 73.31) rotate(-45)"/>
        <rect class="cls-7" x="81.96" y="18.74" width="8.23" height="47.47" rx="4.12" ry="4.12" transform="translate(55.25 -48.43) rotate(45)"/>
      </g>
    </g>
  </g>
</svg>