<?xml version="1.0" encoding="UTF-8"?>
<svg id="_圖層_2" data-name="圖層 2" xmlns="http://www.w3.org/2000/svg" viewBox="0 0 139.55 36.28">
  <defs>
    <style>
      .cls-1 {
        fill: #3e8797;
      }

      .cls-1, .cls-2, .cls-3, .cls-4 {
        stroke-width: 0px;
      }

      .cls-2 {
        fill: #af4732;
      }

      .cls-3 {
        fill: #211816;
      }

      .cls-4 {
        fill: #323333;
      }
    </style>
  </defs>
  <g id="icon">
    <g>
      <g>
        <path class="cls-3" d="M48.11,36.22l-1.04-1.8h-.56v1.8h-.74v-4.51h1.56c.35,0,.64.06.88.18.24.12.42.28.54.49.12.2.18.43.18.68,0,.29-.09.56-.26.8s-.43.4-.79.49l1.12,1.87h-.88ZM46.5,33.83h.82c.28,0,.49-.07.63-.21.14-.14.21-.32.21-.56s-.07-.42-.21-.55c-.14-.13-.35-.2-.63-.2h-.82v1.51Z"/>
        <path class="cls-3" d="M54.42,34.71h-2.73c.02.29.13.52.32.69.19.17.42.26.7.26.4,0,.68-.17.84-.5h.8c-.11.33-.3.6-.59.81s-.64.31-1.06.31c-.34,0-.65-.08-.92-.23-.27-.15-.48-.37-.64-.65s-.23-.6-.23-.97.07-.69.22-.97c.15-.28.36-.49.63-.65.27-.15.58-.23.93-.23s.64.07.9.22c.26.15.47.35.62.62.15.27.22.57.22.92,0,.13,0,.26-.03.36ZM53.67,34.11c0-.27-.1-.49-.29-.66s-.43-.25-.71-.25c-.26,0-.47.08-.66.24s-.29.38-.32.66h1.98Z"/>
        <path class="cls-3" d="M56.45,33.46c.15-.28.35-.49.61-.65.26-.15.54-.23.85-.23.28,0,.53.06.74.17s.38.25.5.41v-.52h.75v3.58h-.75v-.53c-.13.17-.3.31-.51.42s-.46.17-.74.17c-.31,0-.59-.08-.84-.24-.26-.16-.46-.38-.61-.66-.15-.28-.22-.6-.22-.96s.07-.68.22-.95ZM59,33.79c-.1-.18-.23-.32-.4-.42s-.34-.14-.53-.14-.37.05-.53.14c-.16.09-.3.23-.4.41s-.15.39-.15.64.05.46.15.65.24.33.4.43c.17.1.34.15.53.15s.37-.05.53-.14.3-.23.4-.42c.1-.18.15-.4.15-.65s-.05-.46-.15-.64Z"/>
        <path class="cls-3" d="M62.91,31.42v4.8h-.74v-4.8h.74Z"/>
        <path class="cls-3" d="M68.91,32.31v1.32h1.56v.6h-1.56v1.38h1.75v.6h-2.49v-4.52h2.49v.6h-1.75Z"/>
        <path class="cls-3" d="M73.41,36.13c-.22-.1-.4-.24-.53-.42s-.2-.37-.21-.59h.77c.01.15.08.28.22.38.13.1.3.15.5.15s.37-.04.48-.12c.12-.08.17-.18.17-.31,0-.13-.06-.23-.19-.3-.13-.06-.33-.14-.61-.21-.27-.07-.49-.15-.66-.21-.17-.07-.31-.18-.44-.32-.12-.14-.18-.33-.18-.56,0-.19.06-.36.17-.52.11-.16.27-.28.48-.37s.45-.14.72-.14c.41,0,.74.1.98.31.25.21.38.49.4.84h-.74c-.01-.16-.08-.29-.2-.38s-.27-.14-.47-.14-.34.04-.45.11c-.1.07-.16.17-.16.29,0,.1.03.18.1.24s.15.12.25.15c.1.04.25.08.44.14.26.07.47.14.64.21.17.07.31.18.43.31.12.14.18.32.19.55,0,.2-.06.39-.17.55s-.27.29-.48.38c-.21.09-.45.14-.72.14s-.53-.05-.76-.15Z"/>
        <path class="cls-3" d="M78.5,33.25v1.98c0,.13.03.23.09.29.06.06.17.09.32.09h.46v.62h-.58c-.33,0-.59-.08-.77-.23s-.27-.41-.27-.76v-1.98h-.42v-.6h.42v-.89h.75v.89h.87v.6h-.87Z"/>
        <path class="cls-3" d="M81.32,33.46c.15-.28.35-.49.61-.65.26-.15.54-.23.85-.23.28,0,.53.06.74.17s.38.25.5.41v-.52h.75v3.58h-.75v-.53c-.12.17-.3.31-.51.42s-.46.17-.74.17c-.31,0-.59-.08-.84-.24-.26-.16-.46-.38-.61-.66-.15-.28-.22-.6-.22-.96s.07-.68.22-.95ZM83.87,33.79c-.1-.18-.23-.32-.4-.42-.16-.1-.34-.14-.53-.14s-.37.05-.53.14c-.17.09-.3.23-.4.41s-.15.39-.15.64.05.46.15.65.24.33.4.43c.17.1.34.15.53.15s.37-.05.53-.14c.17-.1.3-.23.4-.42.1-.18.15-.4.15-.65s-.05-.46-.15-.64Z"/>
        <path class="cls-3" d="M87.91,33.25v1.98c0,.13.03.23.09.29.06.06.17.09.32.09h.46v.62h-.58c-.33,0-.59-.08-.77-.23s-.27-.41-.27-.76v-1.98h-.42v-.6h.42v-.89h.75v.89h.87v.6h-.87Z"/>
        <path class="cls-3" d="M94.01,34.71h-2.73c.02.29.13.52.32.69.19.17.42.26.7.26.4,0,.68-.17.84-.5h.8c-.11.33-.3.6-.59.81-.28.21-.64.31-1.06.31-.34,0-.65-.08-.92-.23-.27-.15-.48-.37-.64-.65s-.23-.6-.23-.97.07-.69.22-.97c.15-.28.36-.49.63-.65.27-.15.58-.23.93-.23s.64.07.9.22c.26.15.47.35.62.62s.22.57.22.92c0,.13,0,.26-.03.36ZM93.27,34.11c0-.27-.1-.49-.29-.66s-.43-.25-.71-.25c-.26,0-.47.08-.66.24-.18.16-.29.38-.33.66h1.98Z"/>
      </g>
      <g>
        <polygon class="cls-4" points="46.79 13.68 44.5 14.23 44.5 2.82 46.88 3.37 46.79 13.68"/>
        <polygon class="cls-4" points="49.65 17.9 47.24 17.9 47.24 8.82 49.62 9.66 49.65 17.9"/>
        <polygon class="cls-4" points="44.85 5.72 48.92 7.01 48.92 5.4 44.85 4.11 44.85 5.72"/>
        <path class="cls-4" d="M8.09,8.83v1.04h-1.67v8.14c.73-.28-4.1,1.37-2.38.83v-8.96h-1.72l-.49-1.04h2.22v-4.39c0-.9,2.38,4.39,2.38,4.39h1.67Z"/>
        <path class="cls-4" d="M11.7,8.15v3.18h4.68c-.02.88.16,5.94-1.1,7.61-.51.67-.4-.46-1.78-1.4.98-.62.95-3.51.76-5.15h-2.56v1.41c0,2.98-1.45,4-1.87,3.26s-.42-1.49-.42-3.02v-6.96h7.05c0-3.42,2.22-1.3,2.22,0h4.03l1.18,1.06h-5.14c-.22,5.66,1.34,9.18,1.64,10.17.77,1.69,2.1,2.75,2.32,2.95.83.76,2.5.48,3.71.37,0,0,.57,1.09.93,1.83.7,1.45.13,2.06-.44,2.09-3.08.13-5.64-1.63-7.59-4.84-.83-1.36-1.23-2.33-1.56-3.59-.95-3.54-1.13-5.57-1.28-8.98h-4.79Z"/>
        <path class="cls-4" d="M72.82,22.6l-3.04-1.72.31-9.56c.09-2.6-.02-3.11,1.18-6.24h-8.83l-1.69-1.04h20.04l1.63,1.04h-9.26c-.35.75-.22,1.47-.34,2.83v14.69Z"/>
        <path class="cls-4" d="M107.34,10.78v-2.94h2.71v13.09c-.06,1.8-.36,2.63-2.08,3.53-.81.42-2.3-1.38-1.28-1.8.67-.27.66-1.33.66-1.77v-8.76"/>
        <polygon class="cls-4" points="6.33 18.06 4.03 18.06 4.03 3.09 6.42 3.63 6.33 18.06"/>
        <polygon class="cls-4" points="35.77 18.6 33.47 18.6 33.47 3.34 35.86 4.31 35.77 18.6"/>
        <polygon class="cls-4" points="94.22 22.59 91.92 22.59 91.92 4.07 94.31 4.84 94.22 22.59"/>
        <polygon class="cls-4" points="32.64 20.09 30.34 20.09 30.34 6.42 32.73 6.92 32.64 20.09"/>
        <polygon class="cls-4" points="38.9 17.46 36.6 17.46 36.6 6.42 38.99 6.92 38.9 17.46"/>
        <polygon class="cls-4" points="42.06 19.57 39.76 19.57 39.76 3.24 42.15 3.77 42.06 19.57"/>
        <polygon class="cls-4" points="54.25 19.57 51.96 19.57 51.96 3.27 54.34 3.77 54.25 19.57"/>
        <polygon class="cls-4" points="129.8 24.55 127.5 24.55 127.5 13.02 129.89 14.56 129.8 24.55"/>
        <polygon class="cls-4" points="18.68 7.51 16.38 7.51 16.38 1.2 18.77 1.75 18.68 7.51"/>
        <polygon class="cls-4" points="128.07 5.31 125.77 5.31 125.77 1.2 128.16 1.75 128.07 5.31"/>
        <polygon class="cls-4" points="99.21 7.84 88.67 7.9 87.19 6.81 97.43 6.81 99.21 7.84"/>
        <polygon class="cls-4" points="136.37 5.83 119.14 5.83 117.75 4.79 135.35 4.79 136.37 5.83"/>
        <polygon class="cls-4" points="138.37 12.2 117 12.2 117 11.16 137.29 11.16 138.37 12.2"/>
        <rect class="cls-4" x="90.29" y="12.36" width="5.51" height="1.47"/>
        <rect class="cls-4" x="87.19" y="9.26" width="12.02" height="1.04"/>
        <rect class="cls-4" x="87.19" y="15.62" width="12.02" height="1.04"/>
        <polygon class="cls-4" points="99.21 20.05 88.42 20.05 87.19 19.01 98.16 19.01 99.21 20.05"/>
        <path class="cls-4" d="M44.3,1.19l-1.48-.89c-.12-.06-.28-.01-.33.09-.25.5-1.04,1.84-2.71,2.85,0,0,1.93.79,4.58-1.77.1-.09.08-.22-.05-.28Z"/>
        <path class="cls-4" d="M1.8,21.37l-1.02-2.71s4.16-.25,7.77-1.68v1.54c-.46.42-2.88,2-6.75,2.85Z"/>
        <path class="cls-4" d="M87.03,24.79l-.52-2.07c-.06-.25.14-.48.4-.45,1.76.22,8.82.15,12.69-.8v1.8c-1.55.42-8.87,1.38-12.18,1.8-.18.02-.35-.09-.39-.27Z"/>
        <path class="cls-4" d="M120.56,14.49s.18,4.42-1.35,6.06c-.08.09,0,.23.12.2.73-.21,2.14-.83,3-2.64.47-.98.52-2,.36-2.06l-2.14-1.56Z"/>
        <path class="cls-4" d="M102.11,3.11s.12,3.9.14,6.72c.03,5.34-.33,13.63-2.65,16.78,0,0,1.35-.04,2.9-2.5,2.11-3.36,1.92-9.05,2.11-20.44l-2.51-.56Z"/>
        <path class="cls-4" d="M9.41,14.04c-.02,1.16-.22,6.27-1.66,8.78-.14.24.15.49.37.32,1.42-1.11,3.52-3.66,3.59-9.08,0-.14-.11-.25-.25-.25h-1.8c-.13,0-.24.1-.25.24Z"/>
        <path class="cls-4" d="M116.34,11.16s-.04,11.37-2.43,15.22c-.14.23.14.48.35.32,1.96-1.54,5.2-7.5,5.2-15.53h-3.12Z"/>
        <path class="cls-4" d="M21.47,11.31s-.02,2.31-.95,4.85c-.77,2.12-2.81,3.71-4.64,4.55-.21.09-.11.41.12.36,2.57-.52,6.82-3.14,7.88-9.18l-2.4-.58Z"/>
        <polygon class="cls-4" points="39.77 8.66 43.84 7.37 43.84 8.98 39.77 10.27 39.77 8.66"/>
        <polygon class="cls-4" points="39.77 13.97 43.84 12.68 43.84 14.3 39.77 15.58 39.77 13.97"/>
        <polygon class="cls-4" points="50.23 14.3 54.29 15.58 54.29 13.97 50.23 12.68 50.23 14.3"/>
        <polygon class="cls-4" points="50.23 8.98 54.29 10.27 54.29 8.66 50.23 7.37 50.23 8.98"/>
        <rect class="cls-4" x="87.19" y="9.26" width="2.39" height="8.16"/>
        <rect class="cls-4" x="96.84" y="9.26" width="2.39" height="8.16"/>
        <polygon class="cls-1" points="38.23 18.34 47.46 21.26 47.46 19.36 38.23 16.44 38.23 18.34"/>
        <polygon class="cls-1" points="29.01 19.36 38.24 16.44 38.24 18.34 29.01 21.26 29.01 19.36"/>
        <polygon class="cls-2" points="47.23 18.34 56.46 21.26 56.46 19.36 47.23 16.44 47.23 18.34"/>
        <polygon class="cls-2" points="38.01 19.36 47.24 16.44 47.24 18.34 38.01 21.26 38.01 19.36"/>
        <path class="cls-4" d="M15.87,17.54c-.28.87-.57,1.47-.89,1.79-.18.25-.46.48-.83.69-.32.18-.54.28-.65.28-.18,0-.32-.13-.41-.38-.48-1.12-.94-1.95-1.38-2.48-.09-.09-.14-.16-.14-.21v-.14c1.12.3,1.77.45,1.93.45s.33-.29.52-.86c.14-.53.28-1.26.35-2.39"/>
        <path class="cls-4" d="M19.65,16.83c1.15,2.65,1.95,3.33,3.15,3.71.58.11,1.26.29,1.55.09.1-.07.5-.89,1.22-3.3.07-.12.14-.19.2-.19.12,0,.19.2.22.62.21,2.78.56,4.97,1.06,6.59.09.13.14.31.15.53.02.26-.18.4-.58.43-.58.04-1.41-.23-2.49-.78-1.24-.63-2.37-1.52-3.38-2.69-.66-.62-1.72-3.67-2.43-4.73l1.32-.28Z"/>
        <path class="cls-4" d="M72.17,10.55c.1.15.25.44.25.56,0,.24.16.38,0,.83-.16.69.31,2.78.31,2.85l.43,7.89c0,.55,0,.93-.37,1.67-.38.77-.91,1.17-1.19,1.17-.58,0-1.06-.68-1.71-1.75-.18-.31-.21-.75-.21-.98,0-.56.11-2.31.33-5.24.08-.76.12-2.09.12-3.99"/>
        <path class="cls-4" d="M72.4,8.34c-1.81,2.58-3.35,4.46-5.85,6.59-1.96,1.67-4.29,3.19-6.11,4.17-.42.21-.85.47-1.17.65-.2.11-.45-.03-.45-.26v-.12s0,0,0,0c4.68-3.78,7.73-7.32,10.12-12.24.25-.51.47-1.05.61-1.6.08-.31.15-.63.2-.95.04-.26-.11-.59.02-.79.14-.22.64-.09.75-.31l1.33.89.54,3.96Z"/>
        <path class="cls-4" d="M90.08,5.38c-1.13.13-1.8.11-2.32.11-.57,0-.82-.39-.88-.58-.05-.14.14-.2.21-.21,1.64-.35,3.02-.73,4.14-1.15.85-.31,1.55-.71,2.1-1.2.32-.26.51-.45.78-.96.06-.19.2-.3.36-.28.3.04.92.16,1.98,1.03.74.61.75,1.2.7,1.54-.02.18-.18.3-.47.36-1.14.21-3.02.75-3.87.92-.25.05-.49.09-.71.12l-2.01.3Z"/>
        <path class="cls-4" d="M109.94,13.59c.15,2.98.15,5.28-.01,6.89-.16,1.48.03,2.05-.35,2.67-.21.44-1.03,1.37-1.55,1.82-.43.31-.72.48-.89.5-.22.04-.4-.06-.55-.3-.8-1.16-1.52-1.99-2.18-2.49-.12-.05-.18-.11-.19-.16l-.02-.11c1.45.21,2.28.29,2.48.26.5-.08.86-.75,1.08-2,.26-1.22.38-2.84.35-4.84"/>
        <path class="cls-4" d="M21.16,13.81c.09-.57.34-2.97.34-2.97,0-.11-.02-.27.23-.26.51.03,2.15,1.01,2.13,1.31-.01.19-.06.38-.15.63-.16.36-.35,1.07-.54,1.8"/>
        <path class="cls-4" d="M41.53,2.1c.23-.37,1.08-1.95,1.08-1.95.03-.07.05-.19.27-.13.44.12,1.62,1.13,1.53,1.33-.06.13-.15.25-.3.4-.23.21-.88.73-1.62,1.07"/>
        <path class="cls-4" d="M5.52,8.16c.56.02,2.9-.03,2.9-.03.11,0,.26-.05.28.19.03.49-.69,2.06-.97,2.16-.14.05-.44,0-.67-.02-.44,0-.59,0-1.38,0"/>
        <path class="cls-4" d="M3.79,20.8c-.72.24-1.35.43-1.79.55-.32.08-.67.15-.86.15C.85,21.49,0,19.52,0,18.93c0-.29.16-.25.27-.25,0,0,2.39-.1,2.96-.16"/>
        <path class="cls-4" d="M120.56,16.71c.03-.51-.01-2.66-.01-2.66,0-.1-.06-.24.2-.26.51-.04,2.28.63,2.3.9.01.17-.01.34-.08.58-.11.34-.23.99-.33,1.66"/>
        <path class="cls-4" d="M92.52,6.95c1.37-.1,4.26-.23,5.1-.32.1,0,.17,0,.22,0,.26,0,.54.08.85.2.21.08.4.2.55.37s.23.33.23.49c0,.25-.19.36-.55.35-.28-.01-.76-.05-1.43-.11-.42-.07-3.25-.2-3.56-.21"/>
        <path class="cls-4" d="M75.54,4.13c1.37-.1,4.26-.23,5.1-.32.1,0,.17,0,.22,0,.26,0,.54.08.85.2.21.08.4.2.55.37s.23.33.23.49c0,.25-.19.36-.55.35-.28-.01-.76-.05-1.43-.11-.42-.07-3.25-.2-3.56-.21"/>
        <path class="cls-4" d="M17.76,7.3c1.37-.1,4.26-.23,5.1-.32.1,0,.17,0,.22,0,.26,0,.54.08.85.2.21.08.4.2.55.37s.23.33.23.49c0,.25-.19.36-.55.35-.28-.01-.76-.05-1.43-.11-.42-.07-3.25-.2-3.56-.21"/>
        <path class="cls-4" d="M129.63,4.99c1.37-.1,4.26-.23,5.1-.32.1,0,.17,0,.22,0,.26,0,.54.08.85.2.21.08.4.2.55.37s.23.33.23.49c0,.25-.19.36-.55.35-.28-.01-.76-.05-1.43-.11-.42-.07-3.25-.2-3.56-.21"/>
        <path class="cls-4" d="M123.46,5.6c-.98-.01-2.69.16-3.67.25-.21.04-.43.05-.64.03-.3-.03-.62-.17-.97-.43-.29-.27-.43-.44-.42-.52.01-.14.07-.2.17-.19.8.07,2.51.09,5.12.07"/>
        <path class="cls-4" d="M105.71,8.57c-.98-.01-2.73.43-3.71.52-.21.04-.43.05-.64.03-.3-.03-.58-.44-.93-.7-.29-.27-.43-.44-.42-.52.01-.14.07-.2.17-.19.8.07,2.76.15,5.37.13"/>
        <path class="cls-4" d="M92.73,7.61c-.98-.01-2.69.16-3.67.25-.21.04-.43.05-.64.03-.3-.03-.62-.17-.97-.43-.29-.27-.43-.44-.42-.52.01-.14.07-.2.17-.19.8.07,2.51.09,5.12.07"/>
        <path class="cls-4" d="M66.62,4.92c-1.08-.02-2.95.17-4.02.27-.23.04-.47.05-.71.03-.32-.03-.68-.18-1.07-.47-.32-.29-.47-.48-.46-.57.01-.15.08-.22.19-.21.87.07,2.75.1,5.62.08"/>
        <path class="cls-4" d="M92.52,19.15c1.37-.1,4.26-.23,5.1-.32.1,0,.17,0,.22,0,.26,0,.54.08.85.2.21.08.4.2.55.37s.23.33.23.49c0,.25-.19.36-.55.35-.28-.01-.76-.05-1.43-.11-.42-.07-3.25-.2-3.56-.21"/>
        <path class="cls-4" d="M92.73,19.82c-.98-.01-2.69.16-3.67.25-.21.04-.43.05-.64.03-.3-.03-.62-.17-.97-.43-.29-.27-.43-.44-.42-.52.01-.14.07-.2.17-.19.8.07,2.51.09,5.12.07"/>
        <path class="cls-4" d="M42.49,20.27c.22.04.74.24,1.56.62.78.42,1.13.81,1.08,1.17-.02.14-.1.24-.25.3-.48.2-.93.55-1.37.84-.6.4-1.18.84-1.8,1.22-.57.35-1.17.68-1.78.94-.56.24-1.24.45-2.04.64-.23.05-.43.06-.59.03-.15-.02-.21-.07-.2-.13,0-.05.19-.16.23-.19.08-.07.17-.14.25-.21,1.32-1.07,2.74-2.18,3.79-3.58.03-.04.05-.07.08-.11.27-.37.58-.75.66-1.23.04-.24.17-.35.39-.31Z"/>
        <path class="cls-4" d="M19.86,2.98c.57-.04,1.11.02,1.66.15.94.22,2.17.51,2.6,1.5.21.49.23,1.44-.44,1.58,0,0,0,0,0,0-.34.07-.69-.02-.96-.24-.22-.18-.48-.42-.8-.73-.36-.39-.72-.78-1.09-1.16-.32-.33-.66-.61-1-.91-.08-.07,0-.17.04-.17Z"/>
        <path class="cls-4" d="M48.87,20.66c.83-.09,1.61.18,2.39.44,1.34.45,3.09,1.03,3.57,2.53.24.75.14,2.12-.85,2.23,0,0,0,0-.01,0-.5.06-1-.13-1.36-.48-.29-.28-.65-.68-1.07-1.17-.47-.61-.94-1.23-1.43-1.84-.41-.52-.87-.98-1.32-1.46-.1-.11.01-.23.09-.24Z"/>
        <path class="cls-4" d="M74.45,10.41c.07-.02.26,0,.51.03.52.07,1.03.2,1.52.37.87.3,1.73.64,2.58,1.02,1.44.69,2.34,1.34,2.79,1.88.36.45.57,1.11.57,1.69,0,.26-.06.55-.17.85-.07.2-.19.38-.37.51-.16.11-.35.17-.55.17-.41,0-.69-.08-.89-.19-.49-.29-1.22-.97-2.22-1.99-1.44-1.67-2.47-2.62-2.89-3.06-.62-.63-.98-.87-.98-1.09,0-.13.04-.17.11-.19Z"/>
        <path class="cls-4" d="M124.15,11.16c-1.01.38-1.3.64-1.84.68-.44.04-.59-.45-.72-.56-.06-.05-.04-.15.02-.18,1.65-.67,2.57-1.03,3.79-1.67.87-.46,2.15-1.05,2.85-1.93.3-.37.56-.9.78-1.58,0-.1.09-.15.25-.15.31,0,.54.09,1.66.75.85.6.95.78.94,1.21,0,.2,0,.62-.53.98-.12.08-.26.15-.4.19-1.16.41-2.95.79-3.77,1.11-.2.08-.39.14-.58.2-.1.03-.19.06-.28.1l-2.19.84Z"/>
        <path class="cls-4" d="M124.48,6.38c-.94-.53-1.18-.84-1.71-.96-.43-.1-.65.36-.8.44-.06.04-.07.14,0,.18,1.52.92,2.38,1.42,3.48,2.24.79.59,1.96,1.38,2.51,2.36.24.42.41.98.53,1.68-.01.1.06.16.23.18.31.04.54,0,1.76-.48.94-.46,1.06-.62,1.12-1.05.03-.2.1-.61-.37-1.05-.11-.1-.23-.18-.36-.25-1.08-.58-2.79-1.25-3.55-1.69-.18-.11-.36-.2-.54-.29-.09-.05-.18-.09-.26-.14l-2.03-1.17Z"/>
        <path class="cls-4" d="M102.21,8.32c.12-1.46,0-2.27-.03-3.44,0-.24-.02-.48-.05-.72l-.1-.89c-.02-.13-.08-.31.21-.34.58-.07,2.64.69,2.68,1.04.03.22.01.44-.04.75-.26,1.13-.38,4.93-.35,4.92l-.19.06"/>
        <path class="cls-4" d="M125.56,4.43c-.01-.66-.23-3.43-.23-3.43-.02-.13-.08-.31.21-.34.58-.07,2.64.69,2.68,1.04.03.22.01.44-.04.75-.1.44-.18,1.29-.24,2.15"/>
        <path class="cls-4" d="M33.47,7.2c-.01-.66-.25-3.59-.25-3.59-.02-.13-.08-.31.21-.34.58-.07,2.64.69,2.68,1.04.03.22.01.44-.04.75-.1.44-.18,1.29-.24,2.15"/>
        <path class="cls-4" d="M4.01,6.59c-.01-.66-.23-3.43-.23-3.43-.02-.13-.08-.31.21-.34.58-.07,2.64.69,2.68,1.04.03.22.01.44-.04.75-.1.44-.2,1.51-.26,2.38"/>
        <path class="cls-4" d="M16.32,6.6c-.02-1.73.02-1.83-.08-3.25l-.11-2.12c-.02-.13-.08-.31.21-.34.58-.07,2.64.69,2.68,1.04.03.22.01.44-.04.75-.26,1.13-.33,3.93-.29,3.93"/>
        <polygon class="cls-4" points="2.51 10.46 7.07 10.46 8.09 8.16 1.82 8.16 2.51 10.46"/>
        <path class="cls-4" d="M22.14,6.53c.56.02,2.9-.03,2.9-.03.11,0,.26-.05.28.19.03.49-.69,2.06-.97,2.16-.14.05-.44,0-.67-.02-.44,0-.59,0-1.38,0"/>
        <polygon class="cls-4" points="9.41 8.83 23.69 8.83 24.71 6.52 9.41 6.52 9.41 8.83"/>
        <path class="cls-4" d="M79.87,3.45c.56.02,2.9-.03,2.9-.03.11,0,.26-.05.28.19.03.49-.69,2.06-.97,2.16-.14.05-.44,0-.67-.02-.44,0-.59,0-1.38,0"/>
        <path class="cls-4" d="M63.44,3.45c-.56.02-2.9-.03-2.9-.03-.11,0-.26-.05-.28.19-.03.49.69,2.06.97,2.16.14.05.44,0,.67-.02.44,0,.59,0,1.38,0"/>
        <path class="cls-4" d="M103.18,7.81c-.56.02-2.9-.03-2.9-.03-.11,0-.26-.05-.28.19-.03.49.69,2.06.97,2.16.14.05.44,0,.67-.02.44,0,.59,0,1.38,0"/>
        <path class="cls-4" d="M89.98,6.17c-.56.02-2.9-.03-2.9-.03-.11,0-.26-.05-.28.19-.03.49.69,2.06.97,2.16.14.05.44,0,.67-.02.44,0,.59,0,1.38,0"/>
        <path class="cls-4" d="M4.54,8.16c-.56.02-2.9-.03-2.9-.03-.11,0-.26-.05-.28.19-.03.49.69,2.06.97,2.16.14.05.44,0,.67-.02.44,0,.59,0,1.38,0"/>
        <path class="cls-4" d="M120.72,4.01c-.56.02-2.9-.03-2.9-.03-.11,0-.26-.05-.28.19-.03.49.69,2.06.97,2.16.14.05.44,0,.67-.02.44,0,.59,0,1.38,0"/>
        <polygon class="cls-4" points="61.31 5.75 81.42 5.75 82.45 3.45 61.31 3.45 61.31 5.75"/>
        <polygon class="cls-4" points="100.97 10.15 108.53 10.15 109.55 7.85 100.77 7.85 100.97 10.15"/>
        <path class="cls-4" d="M96.77,6.18c.56.02,2.9-.03,2.9-.03.11,0,.26-.05.28.19.03.49-.69,2.06-.97,2.16-.14.05-.44,0-.67-.02-.44,0-.59,0-1.38,0"/>
        <path class="cls-4" d="M94.41,12.37c.35.01,1.81-.02,1.81-.02.07,0,.16-.03.17.12.02.31-.43,1.28-.6,1.35-.09.03-.27,0-.42,0-.27,0-.37,0-.86,0"/>
        <polygon class="cls-4" points="88.38 8.47 98.32 8.47 99.34 6.17 88.38 6.17 88.38 8.47"/>
        <path class="cls-4" d="M133.99,4.01c.56.02,2.9-.03,2.9-.03.11,0,.26-.05.28.19.03.49-.69,2.06-.97,2.16-.14.05-.44,0-.67-.02-.44,0-.59,0-1.38,0"/>
        <polygon class="cls-4" points="118.61 6.31 135.54 6.31 136.56 4.01 118.61 4.01 118.61 6.31"/>
        <path class="cls-4" d="M125.52,19.13c-.56.02-2.9-.03-2.9-.03-.11,0-.26-.05-.28.19-.03.49.69,2.06.97,2.16.14.05.44,0,.67-.02.44,0,.59,0,1.38,0"/>
        <path class="cls-4" d="M132.03,19.14c.56.02,2.9-.03,2.9-.03.11,0,.26-.05.28.19.03.49-.69,2.06-.97,2.16-.14.05-.44,0-.67-.02-.44,0-.59,0-1.38,0"/>
        <polygon class="cls-4" points="123.46 21.43 133.3 21.43 134.32 19.13 123.46 19.13 123.46 21.43"/>
        <path class="cls-4" d="M121.27,23.19c-.56.02-2.9-.03-2.9-.03-.11,0-.26-.05-.28.19-.03.49.69,2.06.97,2.16.14.05.44,0,.67-.02.44,0,.59,0,1.38,0"/>
        <path class="cls-4" d="M136.37,23.19c.56.02,2.9-.03,2.9-.03.11,0,.26-.05.28.19.03.49-.69,2.06-.97,2.16-.14.05-.44,0-.67-.02-.44,0-.59,0-1.38,0"/>
        <polygon class="cls-4" points="119.12 25.49 138.36 25.49 139.38 23.19 119.12 23.19 119.12 25.49"/>
        <path class="cls-4" d="M135.81,11.17c.56.02,2.9-.03,2.9-.03.11,0,.26-.05.28.19.03.49-.69,2.06-.97,2.16-.14.05-.44,0-.67-.02-.44,0-.59,0-1.38,0"/>
        <polygon class="cls-4" points="118 13.46 137.36 13.46 138.38 11.16 118 11.16 118 13.46"/>
        <path class="cls-4" d="M133.81,15.04c.56.02,2.9-.03,2.9-.03.11,0,.26-.05.28.19.03.49-.69,2.06-.97,2.16-.14.05-.44,0-.67-.02-.44,0-.59,0-1.38,0"/>
        <polygon class="cls-4" points="122.33 17.33 135.92 17.33 136.94 15.03 122.33 15.03 122.33 17.33"/>
        <path class="cls-4" d="M89.98,18.38c-.56.02-2.9-.03-2.9-.03-.11,0-.26-.05-.28.19-.03.49.69,2.06.97,2.16.14.05.44,0,.67-.02.44,0,.59,0,1.38,0"/>
        <path class="cls-4" d="M96.77,18.38c.56.02,2.9-.03,2.9-.03.11,0,.26-.05.28.19.03.49-.69,2.06-.97,2.16-.14.05-.44,0-.67-.02-.44,0-.59,0-1.38,0"/>
        <polygon class="cls-4" points="88.38 20.68 98.32 20.68 99.34 18.38 88.38 18.38 88.38 20.68"/>
        <polygon class="cls-4" points="88.38 11.56 98.32 11.56 98.87 9.26 88.38 9.26 88.38 11.56"/>
        <polygon class="cls-4" points="88.38 16.93 98.32 16.93 98.87 14.63 88.38 14.63 88.38 16.93"/>
        <polygon class="cls-4" points="9.8 13.64 15.35 13.64 16.37 11.33 9.8 11.33 9.8 13.64"/>
      </g>
    </g>
  </g>
</svg>