<?xml version="1.0" encoding="UTF-8"?>
<svg id="_圖層_2" data-name="圖層 2" xmlns="http://www.w3.org/2000/svg" xmlns:xlink="http://www.w3.org/1999/xlink" viewBox="0 0 168.3 196.66">
  <defs>
    <style>
      .cls-1 {
        fill: #3e8191;
        stroke: #3d3a39;
        stroke-width: 2.8px;
      }

      .cls-1, .cls-2, .cls-3, .cls-4, .cls-5 {
        stroke-miterlimit: 10;
      }

      .cls-2 {
        stroke-width: 1.12px;
      }

      .cls-2, .cls-3, .cls-6, .cls-4, .cls-5 {
        stroke: #be9d73;
      }

      .cls-2, .cls-6, .cls-7, .cls-4 {
        fill: #fff;
      }

      .cls-8 {
        fill: #be9d73;
      }

      .cls-8, .cls-9, .cls-7, .cls-10 {
        stroke-width: 0px;
      }

      .cls-3 {
        fill: #f09a59;
      }

      .cls-3, .cls-4 {
        stroke-width: 1.22px;
      }

      .cls-9, .cls-5 {
        fill: none;
      }

      .cls-11 {
        clip-path: url(#clippath-1);
      }

      .cls-6 {
        stroke-linecap: round;
        stroke-linejoin: round;
        stroke-width: 1.2px;
      }

      .cls-12 {
        clip-path: url(#clippath);
      }

      .cls-5 {
        stroke-width: 1.14px;
      }

      .cls-10 {
        fill: #3d3a39;
      }
    </style>
    <clipPath id="clippath">
      <rect class="cls-9" width="168.3" height="196.66"/>
    </clipPath>
    <clipPath id="clippath-1">
      <rect class="cls-9" x="6.07" y="61.63" width="146.81" height="135.02" rx="12" ry="12"/>
    </clipPath>
  </defs>
  <g id="icon">
    <g class="cls-12">
      <g>
        <circle class="cls-1" cx="86.08" cy="42.45" r="34"/>
        <path class="cls-7" d="M103.45,21.33c-1.53-1.07-3.56-.56-4.52,1.14l-17.67,31.18-12.22-14.71c-1.22-1.48-3.31-1.57-4.63-.2-1.32,1.37-1.4,3.69-.18,5.16l14.86,17.89c.24.29.52.51.81.69.06.04.1.1.16.14,1.52,1.07,3.56.56,4.52-1.14l19.9-35.11c.96-1.7.5-3.97-1.02-5.04Z"/>
      </g>
      <g class="cls-11">
        <g>
          <path class="cls-2" d="M47.95,127.04c3.23,11.89-1.41,26.88,5.1,37.96,6.56,11.18,19.51,18.71,29.41,26.38-1.95-1.51-7.24-1.55-9.65-2.21-7.69-2.12-15.19-4.91-22.2-8.59-12.1-6.35-23.94-16.83-27.9-31.13-3.08-11.12-1.37-33.27,15.02-31.84,5.91.52,8.8,4.24,10.21,9.43Z"/>
          <rect class="cls-8" x="79.25" y="101.65" width="8.71" height="5.25" transform="translate(-30.33 174.15) rotate(-82.8)"/>
          <path class="cls-8" d="M79.51,116.64l1.2-9.53,7.98-3.34,14.7,1.86,6.99,5.23-1.2,9.53-8.86-3.77c-3.39-1.44-7.12-1.93-10.77-1.41l-10.05,1.43Z"/>
          <path class="cls-10" d="M115.6,113.36c-9.64-5.2-17.95-14.73-18.64-15.54v-.05s0,0-.03.02c-.02-.02-.03-.03-.03-.03v.05c-.88.61-11.3,7.77-21.93,10.41l4.77,6.12,16.32-9.64,13.41,13.4,6.14-4.74Z"/>
          <path class="cls-4" d="M121.47,151.08c.18-1.03.31-2.08.4-3.14,1.24-16.32-10.54-31.09-26.72-33.53-17.57-2.65-33.78,9.69-35.99,27.22-.06.45-.1.89-.14,1.34-.85,10.11-6.39,19.46-10.9,28.64-5.17,10.53-7.26,20.46-8.73,32.03-.62,4.92-1.12,11.64-.91,16.34l88.96,10.24c1.37-4.5,2.41-9.23,3.03-14.14,1.9-15.04-.28-29.36-5.47-41.1-3.72-8.42-5.14-14.84-3.53-23.9Z"/>
          <path class="cls-4" d="M88.67,156.14c-11.49-1.45-20.85-2.23-19.4-13.72,1.45-11.49,11.94-19.62,23.43-18.17,11.49,1.45,19.62,11.94,18.17,23.43-1.45,11.49-10.71,9.91-22.2,8.46Z"/>
          <path class="cls-6" d="M121.18,162.88s40.43,54.26,2.35,80.64c0,0,5.44-36.25-2.35-80.64Z"/>
          <circle class="cls-8" cx="78.56" cy="136.68" r="3.06"/>
          <circle class="cls-8" cx="103.9" cy="139.88" r="3.06"/>
          <path class="cls-5" d="M83.88,145.66s5.58,5.03,12.55,1.59"/>
          <polygon class="cls-8" points="53.39 206.28 49.6 205.61 55.8 156.56 59.31 143.97 57.93 159.58 53.39 206.28"/>
          <polygon class="cls-8" points="111.38 213.61 115.92 213.99 122.07 165.25 121.45 152.21 118.81 167.57 111.38 213.61"/>
          <rect class="cls-3" x="108.14" y="173.59" width="4.96" height="13.05" rx="1.68" ry="1.68" transform="translate(-81.94 267.29) rotate(-82.8)"/>
        </g>
      </g>
    </g>
  </g>
</svg>